<svg xmlns="http://www.w3.org/2000/svg" viewBox="0 0 2466 642">
<path fill="#ffffff" fill-rule="evenodd" d="M 92.15,330 c 0.8,-38.27 -2.74,-92.25 19.3,-125.25 c 11.85,-14.78 23.11,-17.41 40.98,-21.73 c 33.11,-5.84 67.49,-5.23 101.07,-5.19 c 43.13,1.92 113.17,0.66 145.7,33.46 c 15.62,20.72 15.72,42.61 9.04,66.9 c -6.33,16.86 -21.53,23.72 -36.62,30.99 c -7.03,3.45 -7.14,12.13 -0.81,16.45 c 25.71,5.94 44.27,8.54 48.99,38.87 c 3.95,42.43 -21.44,63.41 -58.8,75 c -50.04,14.35 -102.88,12.79 -154.5,12.51 c -26.06,-1.42 -72.83,-0.09 -91.32,-21.62 c -23.75,-29.39 -20.53,-64.96 -23.03,-100.39 Z M 425.15,309 c 1.13,-30.04 0.58,-61.44 11.63,-89.91 c 18.5,-43.69 67.11,-46.72 107.74,-37 c 51.21,18.62 48.13,71.07 51.3,116.41 c -1.43,41.17 4.37,97.16 -22.27,131.55 c -24.16,26.7 -71.42,25.73 -103.09,15.9 c -20.25,-9.68 -26.01,-16.81 -34.95,-36.94 c -10.86,-30.54 -9.48,-67.9 -10.36,-100.01 Z M 910.82,307 c 2.78,-69.26 21.6,-109.43 93.71,-123.87 c 43.62,-7.41 93.38,-6.71 136.95,1.08 c 47.63,8.9 67.17,35.91 62.49,84.29 c -2.22,19.1 -8.28,38.81 -31.47,37.68 c -20.78,0.47 -41.23,-3.85 -61.92,-3.16 c -17.1,0.77 -21.03,20.58 -1.71,23.86 c 21.58,1.19 43.08,-1.22 64.63,-1.71 c 19.68,1.62 23.81,8.96 29.17,26.41 c 5.59,32.75 0.05,67.92 -32,84.62 c -29.31,13.29 -54.55,14.75 -86.17,16.32 c -42.87,0.47 -99.97,-1.02 -135.34,-28.39 c -35.72,-29.33 -37.98,-74.16 -38.34,-117.13 Z M 1208.48,316 c 0.26,-45.64 6.07,-90.79 49.39,-115.39 c 50.43,-26.84 118.2,-24.39 173.63,-20.58 c 29.59,3.09 62.24,10.03 86.12,28.78 c 22.89,20.12 29.59,39.08 34.23,68.69 c 4.07,36.11 3.44,75.03 -9.76,109.33 c -28.76,60.22 -94.51,61.8 -152.59,65.02 c -55.78,-0.97 -129.32,-0.82 -162.99,-53.86 c -15.26,-26.46 -16.78,-52.13 -18.03,-81.99 Z M 2089.15,311 c 1.09,-30.32 0.42,-63.22 11.63,-91.91 c 17.5,-37.87 48.14,-42.92 86.72,-40.93 c 50.69,5.29 64.7,36.02 70.23,82.38 c 2.64,45.82 4.98,96.23 -5.68,141.06 c -12.96,44.36 -46.48,52.11 -88.55,50.22 c -22.29,-2.34 -34.72,-5.38 -51.24,-20.61 c -4.09,-5.7 -7.72,-10.87 -10.76,-17.2 c -13.25,-32.92 -11.07,-68.19 -12.35,-103.01 Z M 604.15,393 c 0.13,-2.55 0.33,-5.1 0.59,-7.65 c 2.16,-13.35 9.5,-22.6 22.02,-27.74 c 1.94,-0.39 3.86,-0.89 5.74,-1.5 c 3.66,-0.42 7.33,-0.73 11,-0.94 c 3.34,0.17 6.68,0.47 10,0.9 c 3.84,0.73 7.65,1.64 11.41,2.7 c 12.4,4.71 24.83,9.34 37.29,13.91 c 6.93,2.2 14.04,3.3 21.32,3.3 c 3.9,0 7.49,-1.03 10.79,-3.09 c 4.28,-3.97 3.7,-9.56 -1.23,-12.62 c -3.78,-1.79 -7.76,-2.84 -11.95,-3.14 c -8.59,-0.76 -17.13,-1.87 -25.62,-3.33 c -12.46,-1.87 -24.7,-4.66 -36.74,-8.36 c -4.48,-1.71 -8.9,-3.56 -13.27,-5.54 c -2.73,-1.66 -5.48,-3.29 -8.24,-4.9 c -8.28,-5.82 -14.86,-13.16 -19.76,-22.01 c -6.91,-14.47 -8.82,-30.55 -8.32,-46.49 c 0.37,-10.65 2.34,-20.99 5.92,-31.02 c 1.4,-2.96 2.75,-5.95 4.04,-8.96 c 1.63,-2.42 3.24,-4.86 4.84,-7.3 c 6.05,-7.16 12.59,-13.13 20.65,-18 c 4.51,-2.59 9.16,-4.93 13.93,-7.01 c 3.37,-1.26 6.72,-2.56 10.05,-3.9 c 6.32,-1.7 12.63,-3.4 18.94,-5.1 c 5.95,-1.25 11.94,-2.29 17.96,-3.09 c 6.32,-0.77 12.65,-1.41 18.99,-1.94 c 9.34,-0.25 18.67,-0.59 28,-1.03 c 14,0.11 28,0.45 42,1.04 c 5.97,0.5 11.96,0.94 17.94,1.32 c 13.1,1.31 26.09,3.33 38.98,6.06 c 9.66,2.2 18.92,5.51 27.78,9.91 c 3.85,2.35 7.51,4.96 10.97,7.83 c 1.32,2 2.8,3.86 4.46,5.59 c 1.59,3.12 2.94,6.35 4.04,9.68 c 2.14,9.05 1.89,18.04 -0.74,26.97 c -1.23,3.23 -2.79,6.3 -4.67,9.19 c -3.83,4.4 -8.36,7.88 -13.59,10.46 c -3.64,1.23 -7.37,2.11 -11.17,2.65 c -10.31,0.34 -20.44,-0.9 -30.37,-3.75 c -9.07,-2.76 -18.18,-5.39 -27.34,-7.86 c -6.05,-1.09 -12.16,-1.77 -18.31,-2.06 c -2.49,0.06 -7.05,0.62 -9.13,1.7 c -5.84,3.92 -5.11,12.17 1.24,15.1 c 1.31,0.39 2.64,0.73 3.98,1.02 c 21.01,2.49 42.42,4.48 62.86,10.2 c 5.22,1.68 10.37,3.55 15.46,5.62 c 5.39,2.87 10.46,5.86 15.41,9.45 c 3.08,2.93 6.06,5.93 8.96,9.02 c 2.07,3.23 4.12,6.49 6.14,9.76 c 0.83,2.31 1.79,4.56 2.89,6.76 c 1.31,4.19 2.46,8.42 3.42,12.71 c 0.16,2.69 0.53,5.35 1.11,7.98 c 0.11,3.67 0.23,7.33 0.36,11 c 0.08,11.72 -1.57,23.19 -4.95,34.41 c -1.12,2.37 -2.1,4.8 -2.96,7.28 c -1.61,2.99 -3.19,6.01 -4.72,9.04 c -2.46,3.45 -5.1,6.74 -7.94,9.88 c -2.19,1.78 -4.26,3.69 -6.21,5.72 c -6.63,5.07 -13.75,9.29 -21.39,12.67 c -6.79,2.68 -13.69,5.08 -20.69,7.19 c -6.59,1.51 -13.21,2.9 -19.85,4.17 c -7.64,1.2 -15.29,2.19 -22.98,2.98 c -9,0.77 -18.02,1.32 -27.05,1.64 c -8.31,0.28 -16.62,0.4 -24.94,0.37 c -10,-0.15 -20,-0.49 -30,-1.03 c -5.91,-0.54 -11.83,-1.01 -17.76,-1.41 c -13.21,-1.34 -26.26,-3.59 -39.16,-6.75 c -3.83,-1.14 -7.66,-2.29 -11.49,-3.44 c -3.34,-1.29 -6.64,-2.66 -9.92,-4.13 c -4.14,-2.09 -8.12,-4.45 -11.95,-7.07 c -11.17,-8.99 -16.86,-20.67 -17.07,-35.02 Z M 1558.72,281.78 c 0.28,-22.19 1.42,-50.07 13.19,-69.56 c 19.59,-28.71 50.3,-28.75 81.59,-32.03 c 32.55,-1.45 65.66,-1.51 97.99,3 c 34.99,5.7 55.68,20.27 62.38,56.34 c 3.08,23.54 9.28,73.7 -8.56,92.19 c -9.71,9.37 -18.26,4.52 -29.94,5.55 c -7.51,1.45 -7.26,10.28 -7.21,16.24 c 0.54,26.69 9.51,59.77 -12.87,80.21 c -25.75,22.13 -71.34,20.16 -102.75,15.09 c -20.62,-3.97 -39.84,-16.08 -45.23,-37.5 c -3.51,-20.64 -0.22,-40.16 0.54,-60.81 c -0.91,-24.2 -19.5,-6.64 -33.26,-15.67 c -16.4,-10.98 -15.43,-35.67 -15.87,-53.05 Z M 1825.82,275 c 1.49,-41.18 6.05,-76.82 51.64,-88.91 c 36.81,-8.14 74.55,-7.1 112.04,-5.9 c 35.42,3.77 68.6,3.84 85.9,40.58 c 9.81,26.04 13.71,80.02 1.61,104.97 c -13.41,20.81 -26.9,6.38 -38.43,13.39 c -6.72,3.62 -1.03,36.06 -1.6,43.37 c 1.09,21.14 0.29,38.64 -16.94,53.2 c -29.53,22.07 -95.32,21.58 -126.28,2.84 c -30.02,-19.48 -19.54,-57.09 -18.91,-87.04 c -0.24,-25.3 -18.64,-7.98 -32.69,-16.35 c -18.22,-12.04 -16.52,-40.91 -16.34,-60.15 Z M 226.99,275 c -0.93,18.17 24.75,13.39 36.05,12.64 c 21.63,-3.52 22.1,-25.27 -1.54,-26.65 c -8.36,0.11 -29.89,-3.61 -33.48,6.61 c -0.7,2.42 -1.04,4.88 -1.03,7.4 Z M 1356.49,313 c 0.12,2.37 0.46,4.71 1,7.02 c 6.11,12 24.77,10.49 35.83,8.66 c 11.85,-1.76 15.51,-16.61 7.94,-24.44 c -10.86,-7.48 -42.77,-9.46 -44.77,8.76 Z M 226.09,358 c -0.4,4 0.31,7.79 2.15,11.35 c 5.41,7.52 26.99,5.56 35.24,4.42 c 16.61,-2.51 19.63,-22.3 3.56,-26.57 c -11.49,-1.6 -40.24,-7.35 -40.95,10.8 Z"/>
</svg>
