<?xml version="1.0" encoding="UTF-8"?>
<!DOCTYPE svg PUBLIC "-//W3C//DTD SVG 1.1//EN" "http://www.w3.org/Graphics/SVG/1.1/DTD/svg11.dtd">
<svg xmlns="http://www.w3.org/2000/svg" version="1.1" width="2466px" height="642px" style="shape-rendering:geometricPrecision; text-rendering:geometricPrecision; image-rendering:optimizeQuality; fill-rule:evenodd; clip-rule:evenodd" xmlns:xlink="http://www.w3.org/1999/xlink">
<rect x="0" y="0" width="2466" height="642" fill="#ffffff"/>
<g><path fill="#ffffff" stroke="#ffffff" stroke-width="0.5" d="M 0,0 c 822,0 1644,0 2466,0 c 0,214 0,428 0,642 c -822,0 -1644,0 -2466,0 c 0,-214 0,-428 0,-642 Z M 92.15,330 c 2.5,35.43 -0.72,71 23.03,100.39 c 18.49,21.53 65.26,20.2 91.32,21.62 c 51.62,0.28 104.46,1.84 154.5,-12.51 c 37.36,-11.59 62.75,-32.57 58.8,-75 c -4.72,-30.33 -23.28,-32.93 -48.99,-38.87 c -6.33,-4.32 -6.22,-13 0.81,-16.45 c 15.09,-7.27 30.29,-14.13 36.62,-30.99 c 6.68,-24.29 6.58,-46.18 -9.04,-66.9 c -32.53,-32.8 -102.57,-31.54 -145.7,-33.46 c -33.58,-0.04 -67.96,-0.65 -101.07,5.19 c -17.87,4.32 -29.13,6.95 -40.98,21.73 c -22.04,33 -18.5,86.98 -19.3,125.25 Z M 425.15,309 c 0.88,32.11 -0.5,69.47 10.36,100.01 c 8.94,20.13 14.7,27.26 34.95,36.94 c 31.67,9.83 78.93,10.8 103.09,-15.9 c 26.64,-34.39 20.84,-90.38 22.27,-131.55 c -3.17,-45.34 -0.09,-97.79 -51.3,-116.41 c -40.63,-9.72 -89.24,-6.69 -107.74,37 c -11.05,28.47 -10.5,59.87 -11.63,89.91 Z M 910.82,307 c 0.36,42.97 2.62,87.8 38.34,117.13 c 35.37,27.37 92.47,28.86 135.34,28.39 c 31.62,-1.57 56.86,-3.03 86.17,-16.32 c 32.05,-16.7 37.59,-51.87 32,-84.62 c -5.36,-17.45 -9.49,-24.79 -29.17,-26.41 c -21.55,0.49 -43.05,2.9 -64.63,1.71 c -19.32,-3.28 -15.39,-23.09 1.71,-23.86 c 20.69,-0.69 41.14,3.63 61.92,3.16 c 23.19,1.13 29.25,-18.58 31.47,-37.68 c 4.68,-48.38 -14.86,-75.39 -62.49,-84.29 c -43.57,-7.79 -93.33,-8.49 -136.95,-1.08 c -72.11,14.44 -90.93,54.61 -93.71,123.87 Z M 1208.48,316 c 1.25,29.86 2.77,55.53 18.03,81.99 c 33.67,53.04 107.21,52.89 162.99,53.86 c 58.08,-3.22 123.83,-4.8 152.59,-65.02 c 13.2,-34.3 13.83,-73.22 9.76,-109.33 c -4.64,-29.61 -11.34,-48.57 -34.23,-68.69 c -23.88,-18.75 -56.53,-25.69 -86.12,-28.78 c -55.43,-3.81 -123.2,-6.26 -173.63,20.58 c -43.32,24.6 -49.13,69.75 -49.39,115.39 Z M 2089.15,311 c 1.28,34.82 -0.9,70.09 12.35,103.01 c 3.04,6.33 6.67,11.5 10.76,17.2 c 16.52,15.23 28.95,18.27 51.24,20.61 c 42.07,1.89 75.59,-5.86 88.55,-50.22 c 10.66,-44.83 8.32,-95.24 5.68,-141.06 c -5.53,-46.36 -19.54,-77.09 -70.23,-82.38 c -38.58,-1.99 -69.22,3.06 -86.72,40.93 c -11.21,28.69 -10.54,61.59 -11.63,91.91 Z M 604.15,393 c 0.21,14.35 5.9,26.03 17.07,35.02 c 3.83,2.62 7.81,4.98 11.95,7.07 c 3.28,1.47 6.58,2.84 9.92,4.13 c 3.83,1.15 7.66,2.3 11.49,3.44 c 12.9,3.16 25.95,5.41 39.16,6.75 c 5.93,0.4 11.85,0.87 17.76,1.41 c 10,0.54 20,0.88 30,1.03 c 8.32,0.03 16.63,-0.09 24.94,-0.37 c 9.03,-0.32 18.05,-0.87 27.05,-1.64 c 7.69,-0.79 15.34,-1.78 22.98,-2.98 c 6.64,-1.27 13.26,-2.66 19.85,-4.17 c 7,-2.11 13.9,-4.51 20.69,-7.19 c 7.64,-3.38 14.76,-7.6 21.39,-12.67 c 1.95,-2.03 4.02,-3.94 6.21,-5.72 c 2.84,-3.14 5.48,-6.43 7.94,-9.88 c 1.53,-3.03 3.11,-6.05 4.72,-9.04 c 0.86,-2.48 1.84,-4.91 2.96,-7.28 c 3.38,-11.22 5.03,-22.69 4.95,-34.41 c -0.13,-3.67 -0.25,-7.33 -0.36,-11 c -0.58,-2.63 -0.95,-5.29 -1.11,-7.98 c -0.96,-4.29 -2.11,-8.52 -3.42,-12.71 c -1.1,-2.2 -2.06,-4.45 -2.89,-6.76 c -2.02,-3.27 -4.07,-6.53 -6.14,-9.76 c -2.9,-3.09 -5.88,-6.09 -8.96,-9.02 c -4.95,-3.59 -10.02,-6.58 -15.41,-9.45 c -5.09,-2.07 -10.24,-3.94 -15.46,-5.62 c -20.44,-5.72 -41.85,-7.71 -62.86,-10.2 c -1.34,-0.29 -2.67,-0.63 -3.98,-1.02 c -6.35,-2.93 -7.08,-11.18 -1.24,-15.1 c 2.08,-1.08 6.64,-1.64 9.13,-1.7 c 6.15,0.29 12.26,0.97 18.31,2.06 c 9.16,2.47 18.27,5.1 27.34,7.86 c 9.93,2.85 20.06,4.09 30.37,3.75 c 3.8,-0.54 7.53,-1.42 11.17,-2.65 c 5.23,-2.58 9.76,-6.06 13.59,-10.46 c 1.88,-2.89 3.44,-5.96 4.67,-9.19 c 2.63,-8.93 2.88,-17.92 0.74,-26.97 c -1.1,-3.33 -2.45,-6.56 -4.04,-9.68 c -1.66,-1.73 -3.14,-3.59 -4.46,-5.59 c -3.46,-2.87 -7.12,-5.48 -10.97,-7.83 c -8.86,-4.4 -18.12,-7.71 -27.78,-9.91 c -12.89,-2.73 -25.88,-4.75 -38.98,-6.06 c -5.98,-0.38 -11.97,-0.82 -17.94,-1.32 c -14,-0.59 -28,-0.93 -42,-1.04 c -9.33,0.44 -18.66,0.78 -28,1.03 c -6.34,0.53 -12.67,1.17 -18.99,1.94 c -6.02,0.8 -12.01,1.84 -17.96,3.09 c -6.31,1.7 -12.62,3.4 -18.94,5.1 c -3.33,1.34 -6.68,2.64 -10.05,3.9 c -4.77,2.08 -9.42,4.42 -13.93,7.01 c -8.06,4.87 -14.6,10.84 -20.65,18 c -1.6,2.44 -3.21,4.88 -4.84,7.3 c -1.29,3.01 -2.64,6 -4.04,8.96 c -3.58,10.03 -5.55,20.37 -5.92,31.02 c -0.5,15.94 1.41,32.02 8.32,46.49 c 4.9,8.85 11.48,16.19 19.76,22.01 c 2.76,1.61 5.51,3.24 8.24,4.9 c 4.37,1.98 8.79,3.83 13.27,5.54 c 12.04,3.7 24.28,6.49 36.74,8.36 c 8.49,1.46 17.03,2.57 25.62,3.33 c 4.19,0.3 8.17,1.35 11.95,3.14 c 4.93,3.06 5.51,8.65 1.23,12.62 c -3.3,2.06 -6.89,3.09 -10.79,3.09 c -7.28,0 -14.39,-1.1 -21.32,-3.3 c -12.46,-4.57 -24.89,-9.2 -37.29,-13.91 c -3.76,-1.06 -7.57,-1.97 -11.41,-2.7 c -3.32,-0.43 -6.66,-0.73 -10,-0.9 c -3.67,0.21 -7.34,0.52 -11,0.94 c -1.88,0.61 -3.8,1.11 -5.74,1.5 c -12.52,5.14 -19.86,14.39 -22.02,27.74 c -0.26,2.55 -0.46,5.1 -0.59,7.65 Z M 1558.72,281.78 c 0.44,17.38 -0.53,42.07 15.87,53.05 c 13.76,9.03 32.35,-8.53 33.26,15.67 c -0.76,20.65 -4.05,40.17 -0.54,60.81 c 5.39,21.42 24.61,33.53 45.23,37.5 c 31.41,5.07 77,7.04 102.75,-15.09 c 22.38,-20.44 13.41,-53.52 12.87,-80.21 c -0.05,-5.96 -0.3,-14.79 7.21,-16.24 c 11.68,-1.03 20.23,3.82 29.94,-5.55 c 17.84,-18.49 11.64,-68.65 8.56,-92.19 c -6.7,-36.07 -27.39,-50.64 -62.38,-56.34 c -32.33,-4.51 -65.44,-4.45 -97.99,-3 c -31.29,3.28 -62,3.32 -81.59,32.03 c -11.77,19.49 -12.91,47.37 -13.19,69.56 Z M 1825.82,275 c -0.18,19.24 -1.88,48.11 16.34,60.15 c 14.05,8.37 32.45,-8.95 32.69,16.35 c -0.63,29.95 -11.11,67.56 18.91,87.04 c 30.96,18.74 96.75,19.23 126.28,-2.84 c 17.23,-14.56 18.03,-32.06 16.94,-53.2 c 0.57,-7.31 -5.12,-39.75 1.6,-43.37 c 11.53,-7.01 25.02,7.42 38.43,-13.39 c 12.1,-24.95 8.2,-78.93 -1.61,-104.97 c -17.3,-36.74 -50.48,-36.81 -85.9,-40.58 c -37.49,-1.2 -75.23,-2.24 -112.04,5.9 c -45.59,12.09 -50.15,47.73 -51.64,88.91 Z M 226.99,275 c -0.01,-2.52 0.33,-4.98 1.03,-7.4 c 3.59,-10.22 25.12,-6.5 33.48,-6.61 c 23.64,1.38 23.17,23.13 1.54,26.65 c -11.3,0.75 -36.98,5.53 -36.05,-12.64 Z M 1356.49,313 c 2,-18.22 33.91,-16.24 44.77,-8.76 c 7.57,7.83 3.91,22.68 -7.94,24.44 c -11.06,1.83 -29.72,3.34 -35.83,-8.66 c -0.54,-2.31 -0.88,-4.65 -1,-7.02 Z M 226.09,358 c 0.71,-18.15 29.46,-12.4 40.95,-10.8 c 16.07,4.27 13.05,24.06 -3.56,26.57 c -8.25,1.14 -29.83,3.1 -35.24,-4.42 c -1.84,-3.56 -2.55,-7.35 -2.15,-11.35 Z"/></g>
<g><path fill="#000000" stroke="#000000" stroke-width="0.5" d="M 92.15,330 c 0.8,-38.27 -2.74,-92.25 19.3,-125.25 c 11.85,-14.78 23.11,-17.41 40.98,-21.73 c 33.11,-5.84 67.49,-5.23 101.07,-5.19 c 43.13,1.92 113.17,0.66 145.7,33.46 c 15.62,20.72 15.72,42.61 9.04,66.9 c -6.33,16.86 -21.53,23.72 -36.62,30.99 c -7.03,3.45 -7.14,12.13 -0.81,16.45 c 25.71,5.94 44.27,8.54 48.99,38.87 c 3.95,42.43 -21.44,63.41 -58.8,75 c -50.04,14.35 -102.88,12.79 -154.5,12.51 c -26.06,-1.42 -72.83,-0.09 -91.32,-21.62 c -23.75,-29.39 -20.53,-64.96 -23.03,-100.39 Z M 425.15,309 c 1.13,-30.04 0.58,-61.44 11.63,-89.91 c 18.5,-43.69 67.11,-46.72 107.74,-37 c 51.21,18.62 48.13,71.07 51.3,116.41 c -1.43,41.17 4.37,97.16 -22.27,131.55 c -24.16,26.7 -71.42,25.73 -103.09,15.9 c -20.25,-9.68 -26.01,-16.81 -34.95,-36.94 c -10.86,-30.54 -9.48,-67.9 -10.36,-100.01 Z M 910.82,307 c 2.78,-69.26 21.6,-109.43 93.71,-123.87 c 43.62,-7.41 93.38,-6.71 136.95,1.08 c 47.63,8.9 67.17,35.91 62.49,84.29 c -2.22,19.1 -8.28,38.81 -31.47,37.68 c -20.78,0.47 -41.23,-3.85 -61.92,-3.16 c -17.1,0.77 -21.03,20.58 -1.71,23.86 c 21.58,1.19 43.08,-1.22 64.63,-1.71 c 19.68,1.62 23.81,8.96 29.17,26.41 c 5.59,32.75 0.05,67.92 -32,84.62 c -29.31,13.29 -54.55,14.75 -86.17,16.32 c -42.87,0.47 -99.97,-1.02 -135.34,-28.39 c -35.72,-29.33 -37.98,-74.16 -38.34,-117.13 Z M 1208.48,316 c 0.26,-45.64 6.07,-90.79 49.39,-115.39 c 50.43,-26.84 118.2,-24.39 173.63,-20.58 c 29.59,3.09 62.24,10.03 86.12,28.78 c 22.89,20.12 29.59,39.08 34.23,68.69 c 4.07,36.11 3.44,75.03 -9.76,109.33 c -28.76,60.22 -94.51,61.8 -152.59,65.02 c -55.78,-0.97 -129.32,-0.82 -162.99,-53.86 c -15.26,-26.46 -16.78,-52.13 -18.03,-81.99 Z M 2089.15,311 c 1.09,-30.32 0.42,-63.22 11.63,-91.91 c 17.5,-37.87 48.14,-42.92 86.72,-40.93 c 50.69,5.29 64.7,36.02 70.23,82.38 c 2.64,45.82 4.98,96.23 -5.68,141.06 c -12.96,44.36 -46.48,52.11 -88.55,50.22 c -22.29,-2.34 -34.72,-5.38 -51.24,-20.61 c -4.09,-5.7 -7.72,-10.87 -10.76,-17.2 c -13.25,-32.92 -11.07,-68.19 -12.35,-103.01 Z M 604.15,393 c 0.13,-2.55 0.33,-5.1 0.59,-7.65 c 2.16,-13.35 9.5,-22.6 22.02,-27.74 c 1.94,-0.39 3.86,-0.89 5.74,-1.5 c 3.66,-0.42 7.33,-0.73 11,-0.94 c 3.34,0.17 6.68,0.47 10,0.9 c 3.84,0.73 7.65,1.64 11.41,2.7 c 12.4,4.71 24.83,9.34 37.29,13.91 c 6.93,2.2 14.04,3.3 21.32,3.3 c 3.9,0 7.49,-1.03 10.79,-3.09 c 4.28,-3.97 3.7,-9.56 -1.23,-12.62 c -3.78,-1.79 -7.76,-2.84 -11.95,-3.14 c -8.59,-0.76 -17.13,-1.87 -25.62,-3.33 c -12.46,-1.87 -24.7,-4.66 -36.74,-8.36 c -4.48,-1.71 -8.9,-3.56 -13.27,-5.54 c -2.73,-1.66 -5.48,-3.29 -8.24,-4.9 c -8.28,-5.82 -14.86,-13.16 -19.76,-22.01 c -6.91,-14.47 -8.82,-30.55 -8.32,-46.49 c 0.37,-10.65 2.34,-20.99 5.92,-31.02 c 1.4,-2.96 2.75,-5.95 4.04,-8.96 c 1.63,-2.42 3.24,-4.86 4.84,-7.3 c 6.05,-7.16 12.59,-13.13 20.65,-18 c 4.51,-2.59 9.16,-4.93 13.93,-7.01 c 3.37,-1.26 6.72,-2.56 10.05,-3.9 c 6.32,-1.7 12.63,-3.4 18.94,-5.1 c 5.95,-1.25 11.94,-2.29 17.96,-3.09 c 6.32,-0.77 12.65,-1.41 18.99,-1.94 c 9.34,-0.25 18.67,-0.59 28,-1.03 c 14,0.11 28,0.45 42,1.04 c 5.97,0.5 11.96,0.94 17.94,1.32 c 13.1,1.31 26.09,3.33 38.98,6.06 c 9.66,2.2 18.92,5.51 27.78,9.91 c 3.85,2.35 7.51,4.96 10.97,7.83 c 1.32,2 2.8,3.86 4.46,5.59 c 1.59,3.12 2.94,6.35 4.04,9.68 c 2.14,9.05 1.89,18.04 -0.74,26.97 c -1.23,3.23 -2.79,6.3 -4.67,9.19 c -3.83,4.4 -8.36,7.88 -13.59,10.46 c -3.64,1.23 -7.37,2.11 -11.17,2.65 c -10.31,0.34 -20.44,-0.9 -30.37,-3.75 c -9.07,-2.76 -18.18,-5.39 -27.34,-7.86 c -6.05,-1.09 -12.16,-1.77 -18.31,-2.06 c -2.49,0.06 -7.05,0.62 -9.13,1.7 c -5.84,3.92 -5.11,12.17 1.24,15.1 c 1.31,0.39 2.64,0.73 3.98,1.02 c 21.01,2.49 42.42,4.48 62.86,10.2 c 5.22,1.68 10.37,3.55 15.46,5.62 c 5.39,2.87 10.46,5.86 15.41,9.45 c 3.08,2.93 6.06,5.93 8.96,9.02 c 2.07,3.23 4.12,6.49 6.14,9.76 c 0.83,2.31 1.79,4.56 2.89,6.76 c 1.31,4.19 2.46,8.42 3.42,12.71 c 0.16,2.69 0.53,5.35 1.11,7.98 c 0.11,3.67 0.23,7.33 0.36,11 c 0.08,11.72 -1.57,23.19 -4.95,34.41 c -1.12,2.37 -2.1,4.8 -2.96,7.28 c -1.61,2.99 -3.19,6.01 -4.72,9.04 c -2.46,3.45 -5.1,6.74 -7.94,9.88 c -2.19,1.78 -4.26,3.69 -6.21,5.72 c -6.63,5.07 -13.75,9.29 -21.39,12.67 c -6.79,2.68 -13.69,5.08 -20.69,7.19 c -6.59,1.51 -13.21,2.9 -19.85,4.17 c -7.64,1.2 -15.29,2.19 -22.98,2.98 c -9,0.77 -18.02,1.32 -27.05,1.64 c -8.31,0.28 -16.62,0.4 -24.94,0.37 c -10,-0.15 -20,-0.49 -30,-1.03 c -5.91,-0.54 -11.83,-1.01 -17.76,-1.41 c -13.21,-1.34 -26.26,-3.59 -39.16,-6.75 c -3.83,-1.14 -7.66,-2.29 -11.49,-3.44 c -3.34,-1.29 -6.64,-2.66 -9.92,-4.13 c -4.14,-2.09 -8.12,-4.45 -11.95,-7.07 c -11.17,-8.99 -16.86,-20.67 -17.07,-35.02 Z M 1558.72,281.78 c 0.28,-22.19 1.42,-50.07 13.19,-69.56 c 19.59,-28.71 50.3,-28.75 81.59,-32.03 c 32.55,-1.45 65.66,-1.51 97.99,3 c 34.99,5.7 55.68,20.27 62.38,56.34 c 3.08,23.54 9.28,73.7 -8.56,92.19 c -9.71,9.37 -18.26,4.52 -29.94,5.55 c -7.51,1.45 -7.26,10.28 -7.21,16.24 c 0.54,26.69 9.51,59.77 -12.87,80.21 c -25.75,22.13 -71.34,20.16 -102.75,15.09 c -20.62,-3.97 -39.84,-16.08 -45.23,-37.5 c -3.51,-20.64 -0.22,-40.16 0.54,-60.81 c -0.91,-24.2 -19.5,-6.64 -33.26,-15.67 c -16.4,-10.98 -15.43,-35.67 -15.87,-53.05 Z M 1825.82,275 c 1.49,-41.18 6.05,-76.82 51.64,-88.91 c 36.81,-8.14 74.55,-7.1 112.04,-5.9 c 35.42,3.77 68.6,3.84 85.9,40.58 c 9.81,26.04 13.71,80.02 1.61,104.97 c -13.41,20.81 -26.9,6.38 -38.43,13.39 c -6.72,3.62 -1.03,36.06 -1.6,43.37 c 1.09,21.14 0.29,38.64 -16.94,53.2 c -29.53,22.07 -95.32,21.58 -126.28,2.84 c -30.02,-19.48 -19.54,-57.09 -18.91,-87.04 c -0.24,-25.3 -18.64,-7.98 -32.69,-16.35 c -18.22,-12.04 -16.52,-40.91 -16.34,-60.15 Z M 226.99,275 c -0.93,18.17 24.75,13.39 36.05,12.64 c 21.63,-3.52 22.1,-25.27 -1.54,-26.65 c -8.36,0.11 -29.89,-3.61 -33.48,6.61 c -0.7,2.42 -1.04,4.88 -1.03,7.4 Z M 1356.49,313 c 0.12,2.37 0.46,4.71 1,7.02 c 6.11,12 24.77,10.49 35.83,8.66 c 11.85,-1.76 15.51,-16.61 7.94,-24.44 c -10.86,-7.48 -42.77,-9.46 -44.77,8.76 Z M 226.09,358 c -0.4,4 0.31,7.79 2.15,11.35 c 5.41,7.52 26.99,5.56 35.24,4.42 c 16.61,-2.51 19.63,-22.3 3.56,-26.57 c -11.49,-1.6 -40.24,-7.35 -40.95,10.8 Z"/></g>
</svg>
