<svg width="752" height="752" viewBox="0 0 752 752" fill="none" xmlns="http://www.w3.org/2000/svg">
<path d="M606.919 412.718C558.286 428.52 441.731 384.444 406.055 370.096C400.439 367.838 398.269 361.16 401.485 356.032C421.915 323.454 490.302 219.287 538.936 203.485C596.713 184.712 658.77 216.332 677.544 274.11C696.317 331.888 664.697 393.945 606.919 412.718Z" fill="#F1A839"/>
<path d="M408.819 603.945C378.762 562.575 384.663 438.105 387.284 399.741C387.696 393.702 393.377 389.575 399.248 391.049C436.544 400.411 556.746 433.262 586.803 474.632C622.511 523.781 611.616 592.572 562.467 628.281C513.318 663.989 444.528 653.094 408.819 603.945Z" fill="#27BEFF"/>
<path d="M165.734 474.632C195.791 433.262 315.993 400.411 353.289 391.049C359.16 389.575 364.84 393.702 365.253 399.741C367.874 438.105 373.775 562.575 343.718 603.945C308.009 653.094 239.219 663.989 190.07 628.281C140.921 592.572 130.025 523.781 165.734 474.632Z" fill="#27BEFF"/>
<path d="M213.6 203.485C262.233 219.287 330.621 323.454 351.05 356.032C354.266 361.16 352.096 367.838 346.48 370.096C310.804 384.444 194.25 428.52 145.616 412.718C87.8383 393.945 56.2187 331.888 74.9919 274.11C93.7651 216.332 155.822 184.712 213.6 203.485Z" fill="#F1A839"/>
<circle cx="376.269" cy="169" r="110" fill="#ED2C2F"/>
</svg>
